<svg width="470" height="533" viewBox="0 0 470 533" fill="none" xmlns="http://www.w3.org/2000/svg">
<path d="M392.991 379.991L13 379.991L13 -1.45441e-05L392.991 -1.45441e-05L392.991 379.991Z" fill="#02C39A"/>
<circle cx="152.171" cy="139.559" r="113.997" fill="#FF1B6B"/>
<rect x="178.278" y="251.628" width="188.964" height="106.392" transform="rotate(-11.3813 178.278 251.628)" fill="#EAEAEA"/>
<path d="M190.246 340.433L103.777 207.247C99.7299 201.013 98.3248 193.428 99.8709 186.158C101.417 178.889 105.787 172.531 112.021 168.484C118.254 164.437 125.84 163.032 133.11 164.578C140.379 166.124 146.737 170.495 150.784 176.728L227.08 294.245M221.994 286.411L201.648 255.073C197.601 248.839 196.196 241.253 197.742 233.984C199.288 226.715 203.659 220.357 209.892 216.31C216.126 212.263 223.711 210.858 230.981 212.404C238.25 213.95 244.608 218.321 248.655 224.554L274.087 263.726M258.828 240.223C254.781 233.99 253.376 226.404 254.922 219.134C256.468 211.865 260.838 205.507 267.072 201.46C273.305 197.413 280.891 196.008 288.16 197.554C295.43 199.1 301.787 203.471 305.834 209.704L321.094 233.208" fill="#EAEAEA"/>
<path d="M190.246 340.433L103.777 207.247C99.7299 201.013 98.3248 193.428 99.8709 186.158C101.417 178.889 105.787 172.531 112.021 168.484C118.254 164.437 125.84 163.032 133.11 164.578C140.379 166.124 146.737 170.495 150.784 176.728L227.08 294.245M221.994 286.411L201.648 255.073C197.601 248.839 196.196 241.253 197.742 233.984C199.288 226.715 203.659 220.357 209.892 216.31C216.126 212.263 223.711 210.858 230.981 212.404C238.25 213.95 244.608 218.321 248.655 224.554L274.087 263.726M258.828 240.223C254.781 233.99 253.376 226.404 254.922 219.134C256.468 211.865 260.838 205.507 267.072 201.46C273.305 197.413 280.891 196.008 288.16 197.554C295.43 199.1 301.787 203.471 305.834 209.704L321.094 233.208" stroke="black" stroke-width="30" stroke-linecap="round" stroke-linejoin="round"/>
<path d="M316.007 225.373C311.96 219.14 310.555 211.554 312.101 204.285C313.647 197.015 318.018 190.658 324.251 186.611C330.485 182.564 338.071 181.159 345.34 182.705C352.609 184.251 358.967 188.621 363.014 194.855L408.792 265.365C424.98 290.299 430.6 320.642 424.416 349.72C418.232 378.798 400.75 404.228 375.816 420.416L344.478 440.761L347.737 438.645C332.169 448.757 314.334 454.843 295.832 456.358C277.331 457.873 258.743 454.769 241.738 447.326L235.615 444.619C225.853 440.288 189.276 421.515 125.856 388.296C119.391 384.909 114.502 379.135 112.23 372.2C109.957 365.265 110.479 357.716 113.685 351.16C117.099 344.175 122.749 338.53 129.737 335.122C136.726 331.715 144.653 330.74 152.259 332.353L190.246 340.433M41.5107 214.262L15.6689 208.766ZM66.5333 287.111L50.8644 297.284ZM182.531 122.706L188.027 96.8644ZM228.719 159.54L244.387 149.367Z" fill="#EAEAEA"/>
<path d="M316.007 225.373C311.96 219.14 310.555 211.554 312.101 204.285C313.647 197.015 318.018 190.658 324.251 186.611C330.485 182.564 338.071 181.159 345.34 182.705C352.609 184.251 358.967 188.621 363.014 194.855L408.792 265.365C424.98 290.299 430.6 320.642 424.416 349.72C418.232 378.798 400.75 404.228 375.816 420.416L344.478 440.761L347.737 438.645C332.169 448.757 314.334 454.843 295.832 456.358C277.331 457.873 258.743 454.769 241.738 447.326L235.615 444.619C225.853 440.288 189.276 421.515 125.856 388.296C119.391 384.909 114.502 379.135 112.23 372.2C109.957 365.265 110.479 357.716 113.685 351.16C117.099 344.175 122.749 338.53 129.737 335.122C136.726 331.715 144.653 330.74 152.259 332.353L190.246 340.433M41.5107 214.262L15.6689 208.766M66.5333 287.111L50.8644 297.284M182.531 122.706L188.027 96.8644M228.719 159.54L244.387 149.367" stroke="black" stroke-width="30" stroke-linecap="round" stroke-linejoin="round"/>
</svg>
